# xmcd CD database file
#
# Track frame offsets:
#	182
#	33335
#	57330
#	74810
#	99300
#	132145
#	161400
#	188245
#	204362
#	219495
#	243317
#	271815
#	294880
#
# Disc length: 4418 seconds
#
# Revision: 13
# Processed by: cddbd v1.5.2PL0 Copyright (c) Steve Scherf et al.
# Submitted via: CDex 1.51
#
DISCID=b911400d
DTITLE=Various Artist - Woodstock '94 [CD2]
DYEAR=1994
DGENRE=Rock
TTITLE0=Metallica - For Whom The Bell Tolls
TTITLE1=Paul Rodgers/Slash/Jason Bonham/Neil Schon/Andy Fraser - The Hunter
TTITLE2=Neville Brothers - Come Together
TTITLE3=Sheryl Crow - Run, Baby, Run
TTITLE4=Crosby, Stills and Nash - Deja Vu
TTITLE5=Violent Femmes - Dance, M.F., Dance! - Kiss Off
TTITLE6=Collective Soul - Shine
TTITLE7=Candlebox - Arrow
TTITLE8=Cypress Hill - How I Could Just Kill A Man
TTITLE9=Rollins Band - Right Here Too Much
TTITLE10=Bob Dylan - Highway 61
TTITLE11=Traffic - Pearly Queen
TTITLE12=Peter Gabriel - Biko
EXTD=YEAR: 1994
EXTT0=
EXTT1=
EXTT2=
EXTT3=
EXTT4=
EXTT5=
EXTT6=
EXTT7=
EXTT8=
EXTT9=
EXTT10=
EXTT11=
EXTT12=
PLAYORDER=
